<svg width="24" height="24" viewBox="0 0 24 24" fill="none" xmlns="http://www.w3.org/2000/svg">
  <rect x="4" y="3" width="16" height="18" rx="2" fill="currentColor" opacity="0.1"/>
  <path d="M4 3h16v2H4V3z" fill="currentColor"/>
  <path d="M4 7h16v1H4V7z" fill="currentColor"/>
  <path d="M4 9h12v1H4V9z" fill="currentColor"/>
  <path d="M4 11h10v1H4V11z" fill="currentColor"/>
  <path d="M4 13h8v1H4V13z" fill="currentColor"/>
  <path d="M4 15h6v1H4V15z" fill="currentColor"/>
  <path d="M4 17h4v1H4V17z" fill="currentColor"/>
  <path d="M4 19h2v1H4V19z" fill="currentColor"/>
  <path d="M18 3v2l2-1-2-1z" fill="currentColor" opacity="0.3"/>
  <path d="M4 21h16v-2H4v2z" fill="currentColor"/>
</svg>
